# xmcd
#
# Track frame offsets:
# 150
# 11907
# 28741
# 45225
# 57156
# 68861
# 84258
# 102364
# 118929
# 132437
# 145310
# 158538
# 171853
# 183965
# 196951
# 209050
#
# Disc length: 2955 seconds
#
#
# Revision: 0
# Processed by: cddbd v1.5.1PL0 Copyright (c) Steve Scherf et al.
# Submitted via: FreeRIP 2.91 
#
DISCID=e10b8910
DTITLE=juracy e zé moreno - cantando para o brasil
DYEAR=2005
DGENRE=Country
TTITLE0=a vida com meus irmãos
TTITLE1=saudade do meu sertão
TTITLE2=não vou deixar de te amar
TTITLE3=aqui tudo é diferente
TTITLE4=êh! saudade matadeira
TTITLE5=fazer amor na cama
TTITLE6=um coração que ama
TTITLE7=fui pagar minha promessa
TTITLE8=meu viver não tem sentido
TTITLE9=não vamos nos separar
TTITLE10=você agora vai chorar como eu chorei
TTITLE11=meu paizinho
TTITLE12=como tem gente ruim
TTITLE13=saudade da gente
TTITLE14=não maltrata quem ama
TTITLE15=parabéns! parabens!
EXTD=by dss
EXTT0=
EXTT1=
EXTT2=
EXTT3=
EXTT4=
EXTT5=
EXTT6=
EXTT7=
EXTT8=
EXTT9=
EXTT10=
EXTT11=
EXTT12=
EXTT13=
EXTT14=
EXTT15=
PLAYORDER=
